<?xml version="1.0" encoding="UTF-8" standalone="no"?>
<svg
   xmlns:dc="http://purl.org/dc/elements/1.1/"
   xmlns:cc="http://creativecommons.org/ns#"
   xmlns:rdf="http://www.w3.org/1999/02/22-rdf-syntax-ns#"
   xmlns:svg="http://www.w3.org/2000/svg"
   xmlns="http://www.w3.org/2000/svg"
   xmlns:sodipodi="http://sodipodi.sourceforge.net/DTD/sodipodi-0.dtd"
   xmlns:inkscape="http://www.inkscape.org/namespaces/inkscape"
   width="400"
   height="120"
   viewBox="0 0 400 120"
   version="1.1"
   id="svg60"
   sodipodi:docname="mejs-controls2.svg"
   inkscape:version="0.92.2 5c3e80d, 2017-08-06">
  <metadata
     id="metadata66">
    <rdf:RDF>
      <cc:Work
         rdf:about="">
        <dc:format>image/svg+xml</dc:format>
        <dc:type
           rdf:resource="http://purl.org/dc/dcmitype/StillImage" />
        <dc:title></dc:title>
      </cc:Work>
    </rdf:RDF>
  </metadata>
  <defs
     id="defs64" />
  <sodipodi:namedview
     pagecolor="#ffffff"
     bordercolor="#666666"
     borderopacity="1"
     objecttolerance="10"
     gridtolerance="10"
     guidetolerance="10"
     inkscape:pageopacity="0"
     inkscape:pageshadow="2"
     inkscape:window-width="1890"
     inkscape:window-height="1080"
     id="namedview62"
     showgrid="true"
     inkscape:zoom="3.37"
     inkscape:cx="186.69527"
     inkscape:cy="66.988051"
     inkscape:window-x="30"
     inkscape:window-y="0"
     inkscape:window-maximized="1"
     inkscape:current-layer="svg60">
    <inkscape:grid
       type="xygrid"
       id="grid3765" />
  </sodipodi:namedview>
  <style
     id="style2">.st0{fill:#FFFFFF;width:16px;height:16px} .st1{fill:none;stroke:#FFFFFF;stroke-width:1.5;stroke-linecap:round;} .st2{fill:none;stroke:#FFFFFF;stroke-width:2;stroke-linecap:round;} .st3{fill:none;stroke:#FFFFFF;} .st4{fill:#231F20;} .st5{opacity:0.75;fill:none;stroke:#FFFFFF;stroke-width:5;enable-background:new;} .st6{fill:none;stroke:#FFFFFF;stroke-width:5;} .st7{opacity:0.4;fill:#FFFFFF;enable-background:new;} .st8{opacity:0.6;fill:#FFFFFF;enable-background:new;} .st9{opacity:0.8;fill:#FFFFFF;enable-background:new;} .st10{opacity:0.9;fill:#FFFFFF;enable-background:new;} .st11{opacity:0.3;fill:#FFFFFF;enable-background:new;} .st12{opacity:0.5;fill:#FFFFFF;enable-background:new;} .st13{opacity:0.7;fill:#FFFFFF;enable-background:new;}</style>
  <path
     class="st0"
     d="M16.5 8.5c.3.1.4.5.2.8-.1.1-.1.2-.2.2l-11.4 7c-.5.3-.8.1-.8-.5V2c0-.5.4-.8.8-.5l11.4 7z"
     id="path4" />
  <path
     class="st0"
     d="M24 1h2.2c.6 0 1 .4 1 1v14c0 .6-.4 1-1 1H24c-.6 0-1-.4-1-1V2c0-.5.4-1 1-1zm9.8 0H36c.6 0 1 .4 1 1v14c0 .6-.4 1-1 1h-2.2c-.6 0-1-.4-1-1V2c0-.5.4-1 1-1z"
     id="path6" />
  <path
     class="st0"
     d="M81 1.4c0-.6.4-1 1-1h5.4c.6 0 .7.3.3.7l-6 6c-.4.4-.7.3-.7-.3V1.4zm0 15.8c0 .6.4 1 1 1h5.4c.6 0 .7-.3.3-.7l-6-6c-.4-.4-.7-.3-.7.3v5.4zM98.8 1.4c0-.6-.4-1-1-1h-5.4c-.6 0-.7.3-.3.7l6 6c.4.4.7.3.7-.3V1.4zm0 15.8c0 .6-.4 1-1 1h-5.4c-.6 0-.7-.3-.3-.7l6-6c.4-.4.7-.3.7.3v5.4z"
     id="path8" />
  <path
     class="st0"
     d="M112.7 5c0 .6.4 1 1 1h4.1c.6 0 .7-.3.3-.7L113.4.6c-.4-.4-.7-.3-.7.3V5zm-7.1 1c.6 0 1-.4 1-1V.9c0-.6-.3-.7-.7-.3l-4.7 4.7c-.4.4-.3.7.3.7h4.1zm1 7.1c0-.6-.4-1-1-1h-4.1c-.6 0-.7.3-.3.7l4.7 4.7c.4.4.7.3.7-.3v-4.1zm7.1-1c-.6 0-1 .4-1 1v4.1c0 .5.3.7.7.3l4.7-4.7c.4-.4.3-.7-.3-.7h-4.1z"
     id="path10" />
  <path
     class="st0"
     d="M67 5.8c-.5.4-1.2.6-1.8.6H62c-.6 0-1 .4-1 1v5.7c0 .6.4 1 1 1h4.2c.3.2.5.4.8.6l3.5 2.6c.4.3.8.1.8-.4V3.5c0-.5-.4-.7-.8-.4L67 5.8z"
     id="path12" />
  <path
     class="st1"
     d="M73.9 2.5s3.9-.8 3.9 7.7-3.9 7.8-3.9 7.8"
     id="path14" />
  <path
     class="st1"
     d="M72.6 6.4s2.6-.4 2.6 3.8-2.6 3.9-2.6 3.9"
     id="path16" />
  <path
     class="st0"
     d="M47 5.8c-.5.4-1.2.6-1.8.6H42c-.6 0-1 .4-1 1v5.7c0 .6.4 1 1 1h4.2c.3.2.5.4.8.6l3.5 2.6c.4.3.8.1.8-.4V3.5c0-.5-.4-.7-.8-.4L47 5.8z"
     id="path18" />
  <path
     class="st2"
     d="M52.8 7l5.4 5.4m-5.4 0L58.2 7"
     id="path20" />
  <path
     class="st3"
     d="M128.7 8.6c-6.2-4.2-6.5 7.8 0 3.9m6.5-3.9c-6.2-4.2-6.5 7.8 0 3.9"
     id="path22" />
  <path
     class="st0"
     d="M122.2 3.4h15.7v13.1h-15.7V3.4zM120.8 2v15.7h18.3V2h-18.3z"
     id="path24" />
  <path
     class="st0"
     d="M143.2 3h14c1.1 0 2 .9 2 2v10c0 1.1-.9 2-2 2h-14c-1.1 0-2-.9-2-2V5c0-1.1.9-2 2-2z"
     id="path26" />
  <path
     class="st4"
     d="M146.4 13.8c-.8 0-1.6-.4-2.1-1-1.1-1.4-1-3.4.1-4.8.5-.6 2-1.7 4.6.2l-.6.8c-1.4-1-2.6-1.1-3.3-.3-.8 1-.8 2.4-.1 3.5.7.9 1.9.8 3.4-.1l.5.9c-.7.5-1.6.7-2.5.8zm7.5 0c-.8 0-1.6-.4-2.1-1-1.1-1.4-1-3.4.1-4.8.5-.6 2-1.7 4.6.2l-.5.8c-1.4-1-2.6-1.1-3.3-.3-.8 1-.8 2.4-.1 3.5.7.9 1.9.8 3.4-.1l.5.9c-.8.5-1.7.7-2.6.8z"
     id="path28" />
  <path
     class="st0"
     d="M60.3 77c.6.2.8.8.6 1.4-.1.3-.3.5-.6.6L30 96.5c-1 .6-1.7.1-1.7-1v-35c0-1.1.8-1.5 1.7-1L60.3 77z"
     id="path30" />
  <path
     class="st5"
     d="M2.5 79c0-20.7 16.8-37.5 37.5-37.5S77.5 58.3 77.5 79 60.7 116.5 40 116.5 2.5 99.7 2.5 79z"
     id="path32" />
  <path
     class="st0"
     d="M140.3 77c.6.2.8.8.6 1.4-.1.3-.3.5-.6.6L110 96.5c-1 .6-1.7.1-1.7-1v-35c0-1.1.8-1.5 1.7-1L140.3 77z"
     id="path34" />
  <path
     class="st6"
     d="M82.5 79c0-20.7 16.8-37.5 37.5-37.5s37.5 16.8 37.5 37.5-16.8 37.5-37.5 37.5S82.5 99.7 82.5 79z"
     id="path36" />
  <circle
     class="st0"
     cx="201.9"
     cy="47.1"
     r="8.1"
     id="circle38" />
  <circle
     class="st7"
     cx="233.9"
     cy="79"
     r="5"
     id="circle40" />
  <circle
     class="st8"
     cx="201.9"
     cy="110.9"
     r="6"
     id="circle42" />
  <circle
     class="st9"
     cx="170.1"
     cy="79"
     r="7"
     id="circle44" />
  <circle
     class="st10"
     cx="178.2"
     cy="56.3"
     r="7.5"
     id="circle46" />
  <circle
     class="st11"
     cx="226.3"
     cy="56.1"
     r="4.5"
     id="circle48" />
  <circle
     class="st12"
     cx="225.8"
     cy="102.8"
     r="5.5"
     id="circle50" />
  <circle
     class="st13"
     cx="178.2"
     cy="102.8"
     r="6.5"
     id="circle52" />
  <path
     class="st0"
     d="M178 9.4c0 .4-.4.7-.9.7-.1 0-.2 0-.2-.1L172 8.2c-.5-.2-.6-.6-.1-.8l6.2-3.6c.5-.3.8-.1.7.5l-.8 5.1z"
     id="path54" />
  <path
     class="st0"
     d="M169.4 15.9c-1 0-2-.2-2.9-.7-2-1-3.2-3-3.2-5.2.1-3.4 2.9-6 6.3-6 2.5.1 4.8 1.7 5.6 4.1l.1-.1 2.1 1.1c-.6-4.4-4.7-7.5-9.1-6.9-3.9.6-6.9 3.9-7 7.9 0 2.9 1.7 5.6 4.3 7 1.2.6 2.5.9 3.8 1 2.6 0 5-1.2 6.6-3.3l-1.8-.9c-1.2 1.2-3 2-4.8 2z"
     id="path56" />
  <path
     class="st0"
     d="M183.4 3.2c.8 0 1.5.7 1.5 1.5s-.7 1.5-1.5 1.5-1.5-.7-1.5-1.5c0-.9.7-1.5 1.5-1.5zm5.1 0h8.5c.9 0 1.5.7 1.5 1.5s-.7 1.5-1.5 1.5h-8.5c-.9 0-1.5-.7-1.5-1.5-.1-.9.6-1.5 1.5-1.5zm-5.1 5c.8 0 1.5.7 1.5 1.5s-.7 1.5-1.5 1.5-1.5-.7-1.5-1.5c0-.9.7-1.5 1.5-1.5zm5.1 0h8.5c.9 0 1.5.7 1.5 1.5s-.7 1.5-1.5 1.5h-8.5c-.9 0-1.5-.7-1.5-1.5-.1-.9.6-1.5 1.5-1.5zm-5.1 5c.8 0 1.5.7 1.5 1.5s-.7 1.5-1.5 1.5-1.5-.7-1.5-1.5c0-.9.7-1.5 1.5-1.5zm5.1 0h8.5c.9 0 1.5.7 1.5 1.5s-.7 1.5-1.5 1.5h-8.5c-.9 0-1.5-.7-1.5-1.5-.1-.9.6-1.5 1.5-1.5z"
     id="path58" />
  <path
     style="fill:#ffffff;stroke-width:0.08262609"
     d="m 208.13884,15.231931 c -2.10695,-0.471689 -3.9935,-1.692321 -5.444,-3.522341 -0.72183,-0.910686 -1.11345,-1.613727 -1.11345,-1.998868 0,-0.119437 0.10972,-0.420444 0.24397,-0.668915 0.25111,-0.465007 1.41845,-1.984938 1.52448,-1.984938 0.0504,0 4.76284,5.713337 6.36802,7.720475 l 0.51368,0.642304 -0.66062,-0.0075 c -0.36334,-0.0041 -1.00779,-0.08523 -1.43208,-0.180215 z"
     id="path20-3"
     inkscape:connector-curvature="0" />
  <path
     style="fill:#ffffff;stroke-width:0.08262609"
     d="M 213.48031,17.022515 C 212.1986,15.482626 203.98902,5.456052 203.34474,4.643671 c -0.80777,-1.018507 -0.8736,-1.238853 -0.52615,-1.761065 0.15427,-0.231869 0.24597,-0.285886 0.48536,-0.285886 0.28021,0 0.34615,0.0635 1.3029,1.254415 0.55426,0.689931 1.03387,1.254418 1.06578,1.254418 0.0319,0 0.36014,-0.142948 0.72943,-0.317662 2.6985,-1.276707 5.31263,-1.152269 7.90303,0.376204 1.31815,0.777785 2.83588,2.221115 3.61954,3.44214 0.59211,0.922555 0.60781,0.975617 0.42387,1.431595 -0.18596,0.461021 -1.17655,1.783965 -1.82257,2.434076 -0.61865,0.62258 -1.83794,1.543173 -2.49583,1.884424 -0.29001,0.150427 -0.52739,0.299445 -0.52751,0.331156 -1.4e-4,0.03171 0.29688,0.41433 0.66005,0.850265 0.75455,0.905747 0.85677,1.137553 0.70468,1.59788 -0.12005,0.363165 -0.30569,0.514093 -0.63256,0.514093 -0.18637,0 -0.3358,-0.124234 -0.75445,-0.627209 z m -0.79858,-4.061546 c 1.00137,-1.442377 1.18023,-3.753317 0.41783,-5.398593 -0.4764,-1.028071 -1.29617,-1.849244 -2.18812,-2.191875 -0.60986,-0.234275 -1.70339,-0.207492 -2.29504,0.05621 -0.40196,0.17916 -1.24324,0.848396 -1.47205,1.171001 L 207,6.80124 l 0.65282,0.768059 0.6528,0.768059 0.32545,-0.314174 c 0.80254,-0.774731 1.77552,-0.737458 2.50495,0.09596 0.40906,0.46737 0.61224,1.051785 0.61185,1.75989 -3.6e-4,0.652594 -0.13437,1.123062 -0.44886,1.576104 l -0.21987,0.316715 0.62209,0.755322 c 0.34216,0.415427 0.65251,0.755323 0.68968,0.755323 0.0372,0 0.16804,-0.144691 0.29082,-0.321526 z"
     id="path22-6"
     inkscape:connector-curvature="0" />
  <path
     style="fill:#ffffff;stroke-width:0.07902658"
     d="m 228.32832,15.711101 c -1.4573,-0.254639 -2.97994,-0.961315 -4.22792,-1.962205 -1.17855,-0.945205 -2.42442,-2.570334 -2.70891,-3.533514 -0.11219,-0.3798879 -0.11006,-0.4054409 0.0669,-0.7981062 0.65584,-1.4554627 2.42473,-3.2465129 4.18493,-4.2373601 1.36041,-0.7658022 2.65201,-1.1056582 4.17319,-1.0980978 2.00159,0.00996 3.77,0.6536829 5.62135,2.0462886 1.2001,0.9027307 2.61614,2.5649033 2.94952,3.4622083 0.0999,0.2687843 0.1002,0.3377853 0.003,0.5997482 -0.36637,0.986075 -1.92741,2.870771 -3.10015,3.742918 -2.13755,1.589649 -4.53545,2.202103 -6.96176,1.77812 z m 2.81406,-1.628701 c 1.5862,-0.554905 2.661,-2.245645 2.661,-4.1859569 0,-1.2876133 -0.3529,-2.2946069 -1.10158,-3.1432824 -1.52975,-1.7340844 -4.0753,-1.7508963 -5.59937,-0.036979 -0.76818,0.8638691 -1.14355,1.9263121 -1.1373,3.2189584 0.007,1.4581519 0.55198,2.6641779 1.59324,3.5261969 0.99801,0.82621 2.3352,1.057929 3.58401,0.621063 z"
     id="path26-6"
     inkscape:connector-curvature="0" />
  <path
     style="fill:#ffffff;stroke-width:0.07902658"
     d="m 229.27146,12.365771 c -1.72458,-0.542264 -2.26504,-2.9612172 -0.97827,-4.3785459 0.58117,-0.6401461 1.58244,-0.8724453 2.40385,-0.5576953 0.41593,0.1593722 1.04578,0.7720166 1.24486,1.210853 0.33096,0.729579 0.30708,1.8006872 -0.0564,2.5292722 -0.50037,1.002967 -1.61143,1.511363 -2.61403,1.196116 z"
     id="path28-2"
     inkscape:connector-curvature="0" />
</svg>
